<?xml version="1.0" standalone="no"?>
<!DOCTYPE svg PUBLIC "-//W3C//DTD SVG 20010904//EN"
 "http://www.w3.org/TR/2001/REC-SVG-20010904/DTD/svg10.dtd">
<svg version="1.0" xmlns="http://www.w3.org/2000/svg"
 width="954.000000pt" height="144.000000pt" viewBox="0 0 954.000000 144.000000"
 preserveAspectRatio="xMidYMid meet">
<metadata>
Created by potrace 1.16, written by Peter Selinger 2001-2019
</metadata>
<g transform="translate(0.000000,144.000000) scale(0.100000,-0.100000)"
fill="#000000" stroke="none">
<path d="M1526 1431 l-50 -6 -100 -181 c-56 -99 -182 -330 -281 -512 -99 -182
-183 -332 -186 -332 -3 0 -71 123 -152 273 -80 149 -204 380 -275 512 l-130
240 -171 3 c-94 1 -171 1 -171 -2 0 -7 253 -468 520 -948 l255 -458 120 0 120
0 225 402 c510 910 560 1001 558 1003 -8 6 -240 11 -282 6z"/>
<path d="M4390 778 c0 -318 4 -547 10 -568 19 -71 64 -126 127 -156 55 -27 65
-29 188 -29 l130 0 3 102 3 103 -54 0 c-30 0 -68 5 -86 11 -62 22 -61 17 -61
569 l0 500 -130 0 -130 0 0 -532z"/>
<path d="M5032 778 c3 -482 5 -537 21 -579 26 -67 78 -122 139 -150 49 -22 68
-24 276 -27 l222 -4 0 105 0 106 -166 3 -166 3 -28 32 c-37 42 -42 77 -38 308
2 143 6 190 16 191 6 1 95 2 197 3 l185 1 0 100 0 100 -197 2 -198 3 -3 168
-2 167 -131 0 -130 0 3 -532z"/>
<path d="M6190 1126 c-99 -22 -151 -63 -192 -151 -23 -49 -23 -56 -23 -400 l0
-350 31 -55 c34 -60 94 -112 152 -131 26 -9 160 -14 455 -16 l417 -4 0 110 0
111 -342 0 c-196 0 -358 4 -379 10 -19 6 -46 22 -60 36 l-24 26 0 263 c0 252
1 265 21 292 36 49 61 52 437 52 l347 1 0 110 0 110 -392 -1 c-270 0 -410 -5
-448 -13z"/>
<path d="M7230 1030 c0 -98 2 -110 18 -111 9 -1 106 -1 215 0 l197 1 0 -450 0
-450 125 0 125 0 0 450 0 450 220 0 220 0 0 110 0 110 -560 0 -560 0 0 -110z"/>
<path d="M8534 1127 c-3 -8 -4 -214 -2 -458 4 -490 2 -477 70 -554 76 -87 136
-97 578 -93 l345 3 3 107 3 107 -335 3 c-322 3 -336 4 -363 24 -53 39 -53 39
-53 472 l0 402 -120 0 c-92 0 -122 -3 -126 -13z"/>
<path d="M1827 873 l-55 -98 326 -5 c299 -5 329 -7 355 -24 36 -25 47 -46 47
-95 l0 -40 -327 -3 -328 -3 -50 -27 c-101 -53 -135 -117 -135 -258 0 -79 4
-103 24 -145 29 -61 65 -97 131 -127 50 -23 52 -23 495 -23 l445 0 0 360 0
360 -26 55 c-31 65 -75 111 -138 142 -45 22 -55 23 -377 26 l-331 3 -56 -98z
m678 -551 l0 -87 -267 -3 -267 -2 -28 24 c-37 32 -39 93 -4 130 l24 26 271 0
271 0 0 -88z"/>
<path d="M3010 636 c0 -310 1 -339 21 -401 17 -55 31 -78 72 -119 86 -86 112
-91 482 -91 278 0 316 2 364 19 66 23 134 83 169 151 l27 50 3 363 3 362 -126
0 -125 0 0 -315 c0 -344 -1 -353 -57 -391 -25 -17 -49 -19 -258 -19 -211 0
-233 2 -262 20 -61 36 -63 50 -63 394 l0 311 -125 0 -125 0 0 -334z"/>
</g>
</svg>
