<?xml version="1.0" standalone="no"?>
<!DOCTYPE svg PUBLIC "-//W3C//DTD SVG 20010904//EN"
 "http://www.w3.org/TR/2001/REC-SVG-20010904/DTD/svg10.dtd">
<svg version="1.0" xmlns="http://www.w3.org/2000/svg"
 width="1024.000000pt" height="1024.000000pt" viewBox="0 0 1024.000000 1024.000000"
 preserveAspectRatio="xMidYMid meet">
<metadata>
Created by potrace 1.16, written by Peter Selinger 2001-2019
</metadata>
<g transform="translate(0.000000,1024.000000) scale(0.100000,-0.100000)"
fill="#000000" stroke="none">
<path d="M4830 8240 c-168 -54 -492 -158 -720 -230 -651 -206 -1193 -380
-1217 -390 -23 -10 -23 -10 -23 -260 l0 -250 220 0 220 0 0 115 c0 63 2 115 5
115 3 0 249 79 547 176 299 97 709 229 912 295 l369 119 241 -76 c133 -42 360
-114 506 -161 146 -47 344 -110 440 -141 96 -31 279 -90 405 -132 l230 -76 3
-117 3 -117 219 0 220 0 0 253 0 253 -497 161 c-274 89 -615 198 -758 243
-143 45 -428 136 -633 201 -205 66 -376 119 -380 119 -4 -1 -144 -45 -312
-100z"/>
<path d="M4995 7615 c-71 -24 -417 -137 -767 -251 l-638 -208 0 -153 0 -153
-237 0 c-454 0 -858 -3 -865 -7 -4 -2 47 -92 112 -201 l120 -197 0 -635 c0
-631 7 -834 36 -1025 63 -422 229 -847 493 -1261 354 -553 959 -1136 1705
-1643 125 -84 156 -101 188 -101 32 0 63 17 200 112 560 384 1030 798 1372
1206 473 566 762 1201 826 1814 5 54 10 410 10 810 l1 713 119 195 c111 181
132 222 113 219 -5 -1 -252 -1 -550 0 l-543 1 0 154 0 153 -92 30 c-1106 362
-1449 473 -1462 472 -6 0 -69 -20 -141 -44z m-1185 -1352 c63 -125 195 -379
292 -566 l178 -340 -27 -81 c-24 -74 -27 -96 -27 -241 -1 -138 2 -171 22 -238
37 -129 107 -256 197 -357 l42 -48 -12 -73 c-7 -41 -37 -241 -66 -446 -30
-205 -57 -369 -60 -365 -8 9 -193 358 -494 932 -125 239 -298 570 -385 735
-86 165 -194 372 -240 460 -72 139 -209 399 -397 753 l-54 102 458 0 458 0
115 -227z m3680 222 c0 -3 -112 -218 -249 -478 -332 -632 -676 -1290 -943
-1807 -121 -234 -230 -443 -243 -465 -12 -22 -46 -87 -76 -145 l-53 -105 -18
125 c-9 69 -39 273 -66 455 l-49 330 56 61 c100 109 175 266 202 421 19 108 7
302 -25 400 l-27 82 42 82 c63 126 487 937 521 997 l29 52 450 0 c247 0 449
-2 449 -5z m-2148 -847 c187 -61 335 -213 395 -405 23 -75 25 -95 21 -201 -4
-99 -9 -128 -33 -187 -38 -95 -91 -170 -169 -242 l-65 -59 49 -340 c68 -470
115 -795 140 -956 l21 -137 -274 -488 c-151 -268 -279 -489 -284 -490 -10 -4
-8 -8 -319 548 l-244 436 35 239 c20 131 67 443 105 692 39 249 70 465 70 480
-1 20 -12 36 -46 61 -91 69 -171 197 -205 329 -35 137 -18 268 52 411 79 160
241 286 419 326 94 21 235 14 332 -17z"/>
</g>
</svg>
