<svg xmlns="http://www.w3.org/2000/svg" viewBox="0 0 954 144"><path d="M152.6 0.9l-5 0.6-10 18.1c-5.6 9.9-18.2 33-28.1 51.2-9.9 18.2-18.3 33.2-18.6 33.2-0.3 0-7.1-12.3-15.2-27.3-8-14.9-20.4-38-27.5-51.2l-13-24-17.1-0.3c-9.4-0.1-17.1-0.1-17.1 0.2 0 0.7 25.3 46.8 52 94.8l25.5 45.8 12 0 12 0 22.5-40.2c51-91 56-100.1 55.8-100.3-0.8-0.6-24-1.1-28.2-0.6z M439 66.2c0 31.8 0.4 54.7 1 56.8 1.9 7.1 6.4 12.6 12.7 15.6 5.5 2.7 6.5 2.9 18.8 2.9l13 0 0.3-10.2 0.3-10.3-5.4 0c-3 0-6.8-0.5-8.6-1.1-6.2-2.2-6.1-1.7-6.1-56.9l0-50-13 0-13 0 0 53.2z M503.2 66.2c0.3 48.2 0.5 53.7 2.1 57.9 2.6 6.7 7.8 12.2 13.9 15 4.9 2.2 6.8 2.4 27.6 2.7l22.2 0.4 0-10.5 0-10.6-16.6-0.3-16.6-0.3-2.8-3.2c-3.7-4.2-4.2-7.7-3.8-30.8 0.2-14.3 0.6-19 1.6-19.1 0.6-0.1 9.5-0.2 19.7-0.3l18.5-0.1 0-10 0-10-19.7-0.2-19.8-0.3-0.3-16.8-0.2-16.7-13.1 0-13 0 0.3 53.2z M619 31.4c-9.9 2.2-15.1 6.3-19.2 15.1-2.3 4.9-2.3 5.6-2.3 40l0 35 3.1 5.5c3.4 6 9.4 11.2 15.2 13.1 2.6 0.9 16 1.4 45.5 1.6l41.7 0.4 0-11 0-11.1-34.2 0c-19.6 0-35.8-0.4-37.9-1-1.9-0.6-4.6-2.2-6-3.6l-2.4-2.6 0-26.3c0-25.2 0.1-26.5 2.1-29.2 3.6-4.9 6.1-5.2 43.7-5.2l34.7-0.1 0-11 0-11-39.2 0.1c-27 0-41 0.5-44.8 1.3z M723 41c0 9.8 0.2 11 1.8 11.1 0.9 0.1 10.6 0.1 21.5 0l19.7-0.1 0 45 0 45 12.5 0 12.5 0 0-45 0-45 22 0 22 0 0-11 0-11-56 0-56 0 0 11z M853.4 31.3c-0.3 0.8-0.4 21.4-0.2 45.8 0.4 49 0.2 47.7 7 55.4 7.6 8.7 13.6 9.7 57.8 9.3l34.5-0.3 0.3-10.7 0.3-10.7-33.5-0.3c-32.2-0.3-33.6-0.4-36.3-2.4-5.3-3.9-5.3-3.9-5.3-47.2l0-40.2-12 0c-9.2 0-12.2 0.3-12.6 1.3z M182.7 56.7l-5.5 9.8 32.6 0.5c29.9 0.5 32.9 0.7 35.5 2.4 3.6 2.5 4.7 4.6 4.7 9.5l0 4-32.7 0.3-32.8 0.3-5 2.7c-10.1 5.3-13.5 11.7-13.5 25.8 0 7.9 0.4 10.3 2.4 14.5 2.9 6.1 6.5 9.7 13.1 12.7 5 2.3 5.2 2.3 49.5 2.3l44.5 0 0-36 0-36-2.6-5.5c-3.1-6.5-7.5-11.1-13.8-14.2-4.5-2.2-5.5-2.3-37.7-2.6l-33.1-0.3-5.6 9.8z m67.8 55.1l0 8.7-26.7 0.3-26.7 0.2-2.8-2.4c-3.7-3.2-3.9-9.3-0.4-13l2.4-2.6 27.1 0 27.1 0 0 8.8z M301 80.4c0 31 0.1 33.9 2.1 40.1 1.7 5.5 3.1 7.8 7.2 11.9 8.6 8.6 11.2 9.1 48.2 9.1 27.8 0 31.6-0.2 36.4-1.9 6.6-2.3 13.4-8.3 16.9-15.1l2.7-5 0.3-36.3 0.3-36.2-12.6 0-12.5 0 0 31.5c0 34.4-0.1 35.3-5.7 39.1-2.5 1.7-4.9 1.9-25.8 1.9-21.1 0-23.3-0.2-26.2-2-6.1-3.6-6.3-5-6.3-39.4l0-31.1-12.5 0-12.5 0 0 33.4z"/></svg>